<svg width="25" height="25" viewBox="0 0 25 25" fill="none" xmlns="http://www.w3.org/2000/svg">
<path d="M6.25016 14.5833C5.67725 14.5833 5.2085 15.0521 5.2085 15.625V18.75C5.2085 19.3229 5.67725 19.7917 6.25016 19.7917H9.37516C9.94808 19.7917 10.4168 19.3229 10.4168 18.75C10.4168 18.1771 9.94808 17.7083 9.37516 17.7083H7.29183V15.625C7.29183 15.0521 6.82308 14.5833 6.25016 14.5833ZM6.25016 10.4167C6.82308 10.4167 7.29183 9.94791 7.29183 9.375V7.29166H9.37516C9.94808 7.29166 10.4168 6.82291 10.4168 6.24999C10.4168 5.67708 9.94808 5.20833 9.37516 5.20833H6.25016C5.67725 5.20833 5.2085 5.67708 5.2085 6.24999V9.375C5.2085 9.94791 5.67725 10.4167 6.25016 10.4167ZM17.7085 17.7083H15.6252C15.0522 17.7083 14.5835 18.1771 14.5835 18.75C14.5835 19.3229 15.0522 19.7917 15.6252 19.7917H18.7502C19.3231 19.7917 19.7918 19.3229 19.7918 18.75V15.625C19.7918 15.0521 19.3231 14.5833 18.7502 14.5833C18.1772 14.5833 17.7085 15.0521 17.7085 15.625V17.7083ZM14.5835 6.24999C14.5835 6.82291 15.0522 7.29166 15.6252 7.29166H17.7085V9.375C17.7085 9.94791 18.1772 10.4167 18.7502 10.4167C19.3231 10.4167 19.7918 9.94791 19.7918 9.375V6.24999C19.7918 5.67708 19.3231 5.20833 18.7502 5.20833H15.6252C15.0522 5.20833 14.5835 5.67708 14.5835 6.24999Z" fill="white"/>
</svg>
