<svg width="20" height="20" viewBox="0 0 20 20" fill="none" xmlns="http://www.w3.org/2000/svg">
<path d="M10.9335 1.71666L6.31683 6.33333C6.0085 6.64166 5.8335 7.06666 5.8335 7.50833V15.8333C5.8335 16.75 6.5835 17.5 7.50016 17.5H15.0002C15.6668 17.5 16.2668 17.1 16.5335 16.4917L19.2502 10.15C19.9502 8.49999 18.7418 6.66666 16.9502 6.66666H12.2418L13.0335 2.84999C13.1168 2.43333 12.9918 2.00833 12.6918 1.70833C12.2002 1.22499 11.4168 1.22499 10.9335 1.71666ZM2.50016 17.5C3.41683 17.5 4.16683 16.75 4.16683 15.8333V9.16666C4.16683 8.24999 3.41683 7.49999 2.50016 7.49999C1.5835 7.49999 0.833496 8.24999 0.833496 9.16666V15.8333C0.833496 16.75 1.5835 17.5 2.50016 17.5Z" fill="#F3FAFF"/>
</svg>
