<svg width="25" height="25" viewBox="0 0 25 25" fill="none" xmlns="http://www.w3.org/2000/svg">
<path d="M3.125 10.4167V14.5833C3.125 15.1562 3.59375 15.625 4.16667 15.625H7.29167L10.7187 19.0521C11.375 19.7083 12.5 19.2396 12.5 18.3125V6.67708C12.5 5.75 11.375 5.28125 10.7187 5.9375L7.29167 9.375H4.16667C3.59375 9.375 3.125 9.84375 3.125 10.4167ZM17.1875 12.5C17.1875 10.6562 16.125 9.07291 14.5833 8.30208V16.6875C16.125 15.9271 17.1875 14.3437 17.1875 12.5ZM14.5833 4.63541V4.84375C14.5833 5.23958 14.8438 5.58333 15.2083 5.72916C17.8958 6.80208 19.7917 9.4375 19.7917 12.5C19.7917 15.5625 17.8958 18.1979 15.2083 19.2708C14.8333 19.4167 14.5833 19.7604 14.5833 20.1562V20.3646C14.5833 21.0208 15.2396 21.4792 15.8438 21.25C19.375 19.9062 21.875 16.5 21.875 12.5C21.875 8.5 19.375 5.09375 15.8438 3.75C15.2396 3.51041 14.5833 3.97916 14.5833 4.63541Z" fill="white"/>
</svg>
