<svg width="176" height="47" viewBox="0 0 176 47" fill="none" xmlns="http://www.w3.org/2000/svg">
<path d="M25.041 26.024V20.8574C25.041 19.1965 25.0625 17.5334 25.0308 15.8725C25.0194 15.2401 25.2756 15.017 25.9125 15.029C27.4992 15.0573 29.0897 15.0652 30.684 15.0529C31.2314 15.0529 31.4774 15.2009 31.4774 15.7832C31.4264 22.7762 31.5012 29.7725 31.3277 36.7633C31.1815 42.5874 25.4422 47.2708 19.3787 46.9878C14.0813 46.7429 9.85837 42.9923 8.7114 38.5734C6.97281 31.8416 12.379 25.0173 19.6042 24.977C20.5237 24.9641 21.4421 25.0399 22.3458 25.2034C23.2276 25.371 24.0787 25.7269 25.041 26.024ZM25.0308 35.9819C25.0376 33.2826 22.6575 30.9915 19.8637 31.0068C17.07 31.022 14.682 33.3174 14.674 35.9927C14.6672 38.6898 17.0337 40.9374 19.8796 40.9341C21.2429 40.9367 22.5514 40.4192 23.5174 39.4954C24.4834 38.5716 25.0278 37.3172 25.0308 36.008V35.9819Z" fill="#EF9325"/>
<path d="M37.0074 19.3368C36.1075 17.8729 35.0807 16.6212 34.5333 15.2009C33.9859 13.7805 33.8238 12.1903 33.6663 10.6568C33.5416 9.40729 33.7059 8.14147 33.6867 6.88219C33.6787 6.27377 33.8703 6.01146 34.5356 6.01908C36.1223 6.04738 37.7131 6.04992 39.3082 6.0267C39.9247 6.02017 40.1367 6.25418 40.1367 6.84083C40.1185 8.3178 40.2058 9.79476 40.1367 11.2598C40.0233 13.8034 42.3445 15.9769 44.9172 16.1086C47.9014 16.2621 50.2576 13.9372 50.2916 11.4056C50.3109 9.95911 50.3302 8.51153 50.3007 7.06395C50.286 6.37499 50.4741 6.01799 51.2788 6.04194C52.8394 6.09527 54.4024 6.08439 55.9641 6.1018C56.3427 6.1018 56.7167 6.12139 56.7065 6.63403C56.6668 8.72051 56.7303 10.8157 56.5592 12.8924C56.371 15.1595 55.1991 17.0512 53.6498 18.7317C53.5206 18.8699 53.3937 19.0103 53.2271 19.1931C53.5421 19.5665 53.8572 19.9322 54.1644 20.3033C56.0571 22.589 56.8085 25.2109 56.634 28.105C56.5864 28.9072 56.5728 29.7115 56.5773 30.5148C56.5773 31.0198 56.3846 31.2483 55.8406 31.2407C54.2539 31.22 52.6592 31.2092 51.068 31.2233C50.4356 31.2287 50.2565 30.9447 50.2588 30.382C50.2588 29.2315 50.1647 28.0789 50.201 26.9306C50.2735 24.7016 48.2742 22.5607 45.9089 22.3321C42.9848 22.0469 40.6127 23.5881 40.1831 26.1165C39.9565 27.452 39.9995 28.8375 40.0063 30.1991C40.0063 30.9 39.7695 31.1591 39.0475 31.1373C37.5095 31.0916 35.9783 31.0818 34.4438 31.0872C33.8771 31.0872 33.6504 30.924 33.6776 30.345C33.7694 28.5567 33.6901 26.7532 33.9133 24.9791C34.1627 22.9928 35.2156 21.2992 36.579 19.7961C36.7615 19.5959 36.9462 19.3989 37.0074 19.3368Z" fill="#3FA4DC"/>
<path d="M16.669 22.146C16.6259 21.6856 16.5976 21.3972 16.5749 21.1578C15.3486 21.4418 14.1575 21.7967 12.9402 21.986C7.65081 22.8132 2.14037 19.4675 0.555924 14.5141C-1.57934 7.83894 2.63225 1.18987 9.83367 0.129758C16.1545 -0.800829 21.734 3.39498 22.6793 8.83701C23.0453 10.9278 22.9377 13.0981 22.9705 15.2347C23.0023 17.2689 22.9139 19.3053 22.9297 21.3406C22.9365 21.986 22.7031 22.1689 22.0593 22.1569C20.2867 22.1254 18.5017 22.146 16.669 22.146ZM11.4884 6.16932C10.8177 6.16243 10.1522 6.28246 9.52986 6.52258C8.9075 6.76269 8.34049 7.11818 7.86121 7.56875C7.38192 8.01932 6.99975 8.55614 6.73652 9.14855C6.47328 9.74097 6.33414 10.3774 6.32703 11.0214V11.1129C6.32703 13.7947 8.65044 16.0227 11.4567 16.0401C14.2345 16.0564 16.5863 13.8219 16.6123 11.1422C16.6183 10.4959 16.4917 9.85476 16.2396 9.25543C15.9876 8.65609 15.6151 8.1103 15.1434 7.64923C14.6717 7.18815 14.11 6.82082 13.4905 6.5682C12.8709 6.31559 12.2056 6.18263 11.5326 6.17694L11.4884 6.16932Z" fill="#E2403D"/>
<path d="M33.9349 41.0952C33.9347 41.0413 33.9539 40.989 33.9893 40.9472L37.6988 36.4923C37.8227 36.3453 37.9207 36.1799 37.9889 36.0026C37.9915 35.9898 37.9957 35.9774 38.0014 35.9656C38.032 35.834 38.0479 35.6998 38.049 35.565C38.054 35.2325 37.9331 34.9096 37.709 34.6562C37.5836 34.5247 37.4301 34.4208 37.2588 34.3519C37.0876 34.2829 36.9029 34.2505 36.7173 34.2568C36.5434 34.2515 36.3701 34.2797 36.2076 34.3395C36.0451 34.3993 35.8967 34.4895 35.7709 34.605C35.5424 34.8193 35.3911 35.098 35.3391 35.4007C35.3281 35.4533 35.2987 35.5007 35.2559 35.5351C35.213 35.5695 35.1592 35.5889 35.1034 35.5901H34.2058C34.1732 35.5898 34.1409 35.5833 34.1109 35.5711C34.0809 35.5588 34.0537 35.541 34.0309 35.5187C34.0081 35.4964 33.99 35.4699 33.9778 35.4409C33.9656 35.4119 33.9595 35.3808 33.9598 35.3495C33.9593 35.3412 33.9593 35.3328 33.9598 35.3245C34.0225 34.7069 34.2986 34.1272 34.7441 33.6777C34.9875 33.4381 35.2788 33.2482 35.6006 33.1195C35.9223 32.9908 36.2679 32.926 36.6164 32.9289C37.4476 32.9376 38.1178 33.1916 38.627 33.6908C39.0998 34.1519 39.3825 34.7621 39.4227 35.4081C39.463 36.0541 39.258 36.6922 38.8458 37.2042L36.0633 40.5543C36.0229 40.6038 36.0046 40.6667 36.0125 40.7291C36.0204 40.7916 36.0537 40.8485 36.1053 40.8873C36.1484 40.9197 36.2013 40.9376 36.256 40.9385H39.1812C39.2465 40.9385 39.309 40.9634 39.3551 41.0077C39.4013 41.0519 39.4272 41.112 39.4272 41.1747V42.0291C39.4272 42.0917 39.4013 42.1518 39.3551 42.1961C39.309 42.2404 39.2465 42.2652 39.1812 42.2652H34.1786C34.1133 42.2652 34.0508 42.2404 34.0047 42.1961C33.9585 42.1518 33.9326 42.0917 33.9326 42.0291L33.9349 41.0952Z" fill="#E2403D"/>
<path d="M40.5176 35.5835C40.5259 34.728 40.8104 34.0695 41.371 33.608C41.8823 33.1577 42.5542 32.9134 43.2479 32.9256C43.9528 32.909 44.6373 33.1533 45.1599 33.608C45.694 34.0695 45.9702 34.728 45.9883 35.5835V39.6737C45.9717 40.5248 45.6956 41.1812 45.1599 41.6426C44.6377 42.0998 43.9544 42.3495 43.2479 42.3414C42.5527 42.3448 41.8821 42.0951 41.371 41.6426C40.8089 41.1804 40.5244 40.5241 40.5176 39.6737V35.5835ZM44.6056 35.6651C44.5777 34.7378 44.1243 34.2662 43.2456 34.2502C42.3638 34.2669 41.9143 34.7385 41.8969 35.6651V39.591C41.915 40.527 42.3646 40.9987 43.2456 41.0059C44.1243 40.9972 44.5777 40.5256 44.6056 39.591V35.6651Z" fill="#EF9325"/>
<path d="M46.938 41.0952C46.9381 41.0415 46.9569 40.9895 46.9913 40.9472L50.7019 36.4923C50.8258 36.3453 50.9238 36.1799 50.992 36.0025C50.9969 35.9905 51.0006 35.9781 51.0034 35.9655C51.0338 35.834 51.0501 35.6998 51.0521 35.565C51.0571 35.2325 50.9362 34.9096 50.7121 34.6562C50.4752 34.3982 50.1454 34.2644 49.7193 34.2567C49.5453 34.251 49.3719 34.2789 49.2093 34.3388C49.0468 34.3986 48.8984 34.4891 48.7729 34.605C48.544 34.8192 48.3923 35.0979 48.34 35.4007C48.3291 35.4535 48.2996 35.5012 48.2565 35.5356C48.2133 35.5701 48.1592 35.5893 48.1031 35.59H47.2055C47.14 35.5897 47.0774 35.5647 47.0311 35.5202C46.9848 35.4758 46.9587 35.4156 46.9584 35.3528C46.9578 35.3433 46.9578 35.3339 46.9584 35.3245C47.0211 34.7069 47.2972 34.1272 47.7427 33.6777C47.9857 33.4379 48.2768 33.2479 48.5984 33.1192C48.92 32.9905 49.2655 32.9257 49.6139 32.9289C50.445 32.9376 51.1175 33.1915 51.6313 33.6908C52.1036 34.1522 52.386 34.7622 52.4262 35.4081C52.4664 36.054 52.2618 36.692 51.85 37.2041L49.071 40.5543C49.032 40.6028 49.0142 40.6641 49.0214 40.725C49.0286 40.7859 49.0602 40.8418 49.1095 40.8808C49.1542 40.9161 49.2103 40.9354 49.2682 40.9352H52.1945C52.2272 40.935 52.2596 40.9412 52.2898 40.9532C52.32 40.9652 52.3474 40.9828 52.3704 41.0051C52.3934 41.0274 52.4116 41.0539 52.4238 41.083C52.436 41.1121 52.4421 41.1433 52.4416 41.1746V41.1746V42.029C52.4416 42.0917 52.4157 42.1518 52.3696 42.196C52.3235 42.2403 52.2609 42.2652 52.1957 42.2652H47.1839C47.1187 42.2652 47.0561 42.2403 47.01 42.196C46.9639 42.1518 46.938 42.0917 46.938 42.029V42.029V41.0952Z" fill="#E2403D"/>
<path d="M54.2549 34.9021V34.0782C54.2551 34.041 54.2645 34.0044 54.2822 33.9713C54.3 33.9382 54.3255 33.9096 54.3569 33.8877L55.5605 33.0442C55.6019 33.014 55.6525 32.998 55.7045 32.9985H56.7608C56.826 32.9985 56.8885 33.0234 56.9347 33.0677C56.9808 33.112 57.0067 33.1721 57.0067 33.2347V33.2347V42.0236C57.0067 42.0863 56.9808 42.1465 56.9347 42.191C56.8886 42.2354 56.8261 42.2606 56.7608 42.2609H55.8711C55.8057 42.2606 55.7432 42.2354 55.6971 42.191C55.651 42.1465 55.6251 42.0863 55.6251 42.0236V42.0236V34.8651C55.6252 34.8214 55.6127 34.7784 55.5888 34.7411C55.565 34.7038 55.5309 34.6736 55.4902 34.6538C55.4495 34.6341 55.4039 34.6256 55.3585 34.6292C55.3131 34.6329 55.2696 34.6486 55.233 34.6747L54.6482 35.0872C54.6118 35.1128 54.5688 35.1284 54.5238 35.1323C54.4789 35.1361 54.4337 35.1281 54.3932 35.109C54.3526 35.09 54.3183 35.0606 54.2939 35.0241C54.2696 34.9877 54.2561 34.9455 54.2549 34.9021V34.9021Z" fill="#3FA4DC"/>
<path d="M65.154 26H67.716L68.332 24.264H72.028L72.616 26H75.234L71.426 16.074H69.004L65.154 26ZM69.018 22.276L70.194 18.958L71.342 22.276H69.018ZM76.1046 26H78.5406V22.276C78.5406 21.52 78.9046 21.142 79.5486 21.142C79.8986 21.142 80.1506 21.254 80.3186 21.422L81.7326 19.532C81.3966 19.182 80.9206 19.014 80.2766 19.014C79.5626 19.014 79.0026 19.21 78.5406 19.588V19.154H76.1046V26ZM83.2497 26H85.6857V21.184H87.1977V19.154H85.6857V16.326H83.2497V19.154H81.7377V21.184H83.2497V26Z" fill="#E2403D"/>
<path d="M65.882 41H73.246V38.886H68.388V36.968H72.742V34.91H68.388V33.188H73.162V31.074H65.882V41ZM73.7913 41H76.3953L77.5713 39.124L78.6633 41H81.4633L79.0833 37.458L81.3233 34.154H78.7193L77.7253 35.834L76.7453 34.154H73.9313L76.2133 37.514L73.7913 41ZM82.1886 41H84.6246V37.136C84.6246 36.506 85.0446 36.114 85.6326 36.114C86.2066 36.114 86.6266 36.506 86.6266 37.136V41H89.0626V36.576C89.0626 35.078 87.9986 34.014 86.3606 34.014C85.6746 34.014 85.0726 34.21 84.6246 34.56V30.794H82.1886V41ZM91.5547 33.356C92.2967 33.356 92.8427 32.782 92.8427 32.054C92.8427 31.326 92.2967 30.752 91.5547 30.752C90.8127 30.752 90.2807 31.326 90.2807 32.054C90.2807 32.782 90.8127 33.356 91.5547 33.356ZM90.3367 41H92.7867V34.154H90.3367V41ZM94.2062 41H96.5862V40.608C97.0482 40.93 97.6502 41.14 98.2802 41.14C100.268 41.14 101.64 39.642 101.64 37.584C101.64 35.512 100.268 34.014 98.2802 34.014C97.6642 34.014 97.0902 34.182 96.6422 34.476V30.794H94.2062V41ZM97.8462 38.97C97.0482 38.97 96.5022 38.396 96.5022 37.57C96.5022 36.758 97.0482 36.184 97.8322 36.184C98.6162 36.184 99.1762 36.772 99.1762 37.57C99.1762 38.396 98.6162 38.97 97.8462 38.97ZM103.846 33.356C104.588 33.356 105.134 32.782 105.134 32.054C105.134 31.326 104.588 30.752 103.846 30.752C103.104 30.752 102.572 31.326 102.572 32.054C102.572 32.782 103.104 33.356 103.846 33.356ZM102.628 41H105.078V34.154H102.628V41ZM107.435 41H109.871V36.184H111.383V34.154H109.871V31.326H107.435V34.154H105.923V36.184H107.435V41ZM113.443 33.356C114.185 33.356 114.731 32.782 114.731 32.054C114.731 31.326 114.185 30.752 113.443 30.752C112.701 30.752 112.169 31.326 112.169 32.054C112.169 32.782 112.701 33.356 113.443 33.356ZM112.225 41H114.675V34.154H112.225V41ZM119.469 41.154C121.653 41.154 123.277 39.614 123.277 37.556C123.277 35.512 121.653 33.986 119.455 33.986C117.257 33.986 115.633 35.526 115.633 37.556C115.633 39.614 117.271 41.154 119.469 41.154ZM119.455 38.984C118.657 38.984 118.111 38.41 118.111 37.584C118.111 36.744 118.657 36.17 119.455 36.17C120.253 36.17 120.799 36.73 120.799 37.57C120.799 38.41 120.267 38.984 119.455 38.984ZM124.243 41H126.679V37.136C126.679 36.506 127.099 36.114 127.687 36.114C128.261 36.114 128.681 36.506 128.681 37.136V41H131.117V36.576C131.117 35.148 130.011 34.014 128.541 34.014C127.799 34.014 127.169 34.224 126.679 34.602V34.154H124.243V41ZM134.583 41H141.933V38.914H138.419L140.183 37.192C141.289 36.128 141.723 35.288 141.723 34.112C141.723 32.152 140.365 30.906 138.223 30.906C136.599 30.906 135.339 31.592 134.527 32.908L136.165 34.364C136.767 33.44 137.313 33.062 138.027 33.062C138.783 33.062 139.273 33.51 139.273 34.21C139.273 34.686 139.049 35.078 138.475 35.68L134.583 39.642V41ZM147.06 41.154C149.538 41.154 151.358 39.068 151.358 36.03C151.358 33.006 149.524 30.906 147.032 30.906C144.54 30.906 142.72 33.006 142.72 36.016C142.72 39.04 144.568 41.154 147.06 41.154ZM147.032 38.998C145.898 38.998 145.226 37.948 145.226 36.016C145.226 34.112 145.898 33.076 147.032 33.076C148.166 33.076 148.852 34.126 148.852 36.03C148.852 37.948 148.18 38.998 147.032 38.998ZM152.042 41H159.392V38.914H155.878L157.642 37.192C158.748 36.128 159.182 35.288 159.182 34.112C159.182 32.152 157.824 30.906 155.682 30.906C154.058 30.906 152.798 31.592 151.986 32.908L153.624 34.364C154.226 33.44 154.772 33.062 155.486 33.062C156.242 33.062 156.732 33.51 156.732 34.21C156.732 34.686 156.508 35.078 155.934 35.68L152.042 39.642V41ZM161.915 41H164.393V31.074H160.025V33.16H161.915V41Z" fill="#FEFFFF"/>
<path d="M93.4938 26.14C94.1938 26.14 94.8098 25.916 95.2578 25.538V26H97.6518V19.154H95.2578V19.63C94.8098 19.238 94.1938 19.014 93.4938 19.014C91.5898 19.014 90.2178 20.512 90.2178 22.584C90.2178 24.642 91.5898 26.14 93.4938 26.14ZM94.0118 23.97C93.2418 23.97 92.6818 23.396 92.6818 22.57C92.6818 21.772 93.2418 21.184 94.0258 21.184C94.8098 21.184 95.3558 21.758 95.3558 22.57C95.3558 23.396 94.8098 23.97 94.0118 23.97ZM99.0734 26H101.509V22.136C101.509 21.506 101.929 21.114 102.517 21.114C103.091 21.114 103.511 21.506 103.511 22.136V26H105.947V21.576C105.947 20.148 104.841 19.014 103.371 19.014C102.629 19.014 101.999 19.224 101.509 19.602V19.154H99.0734V26ZM109.853 26.14C110.707 26.14 111.323 25.86 111.729 25.398V26H114.109V15.794H111.729V19.756C111.309 19.294 110.707 19.014 109.853 19.014C108.019 19.014 106.815 20.568 106.815 22.584C106.815 24.586 108.019 26.14 109.853 26.14ZM110.553 23.9C109.783 23.9 109.293 23.312 109.293 22.5C109.293 21.674 109.797 21.086 110.553 21.086C111.337 21.086 111.813 21.66 111.813 22.486C111.813 23.326 111.337 23.9 110.553 23.9Z" fill="#EF9325"/>
<path d="M118.286 26H122.402C125.426 26 127.68 23.984 127.68 21.03C127.68 18.076 125.426 16.074 122.374 16.074H118.286V26ZM122.36 18.23C124.026 18.23 125.118 19.21 125.118 21.016C125.118 22.85 124.04 23.844 122.36 23.844H120.792V18.23H122.36ZM132.227 26.154C133.431 26.154 134.397 25.762 135.083 24.992L133.809 23.718C133.403 24.18 132.885 24.404 132.227 24.404C131.429 24.404 130.897 24.04 130.687 23.368L135.489 23.34C135.573 22.962 135.601 22.682 135.601 22.416C135.601 20.428 134.117 18.986 132.045 18.986C129.903 18.986 128.307 20.512 128.307 22.57C128.307 24.684 129.917 26.154 132.227 26.154ZM132.073 20.736C132.759 20.736 133.193 21.086 133.347 21.772L130.687 21.786C130.883 21.114 131.387 20.736 132.073 20.736ZM139.125 26.196C140.889 26.196 142.009 25.342 142.009 23.984C142.009 21.422 138.803 21.926 138.803 21.17C138.803 20.96 138.971 20.834 139.405 20.834C139.853 20.834 140.441 21.002 140.889 21.506L142.233 20.148C141.589 19.35 140.455 18.944 139.265 18.944C137.529 18.944 136.395 19.868 136.395 21.17C136.395 23.718 139.629 23.102 139.629 23.97C139.629 24.18 139.405 24.292 138.999 24.292C138.285 24.292 137.641 24.026 137.193 23.55L135.863 24.908C136.577 25.678 137.879 26.196 139.125 26.196ZM144.314 18.356C145.056 18.356 145.602 17.782 145.602 17.054C145.602 16.326 145.056 15.752 144.314 15.752C143.572 15.752 143.04 16.326 143.04 17.054C143.04 17.782 143.572 18.356 144.314 18.356ZM143.096 26H145.546V19.154H143.096V26ZM149.766 25.748C150.368 25.748 150.914 25.594 151.348 25.3V25.608C151.348 26.504 150.746 26.994 149.766 26.994C148.968 26.994 148.436 26.7 147.974 26.182L146.504 27.638C147.148 28.576 148.352 29.108 149.878 29.108C152.118 29.108 153.784 27.708 153.784 25.524V19.154H151.39V19.504C150.956 19.196 150.396 19.014 149.766 19.014C147.862 19.014 146.504 20.484 146.504 22.374C146.504 24.278 147.862 25.748 149.766 25.748ZM150.214 23.634C149.458 23.634 148.968 23.018 148.968 22.374C148.968 21.716 149.458 21.114 150.228 21.114C150.998 21.114 151.488 21.702 151.488 22.374C151.488 23.06 150.998 23.634 150.214 23.634ZM155.196 26H157.632V22.136C157.632 21.506 158.052 21.114 158.64 21.114C159.214 21.114 159.634 21.506 159.634 22.136V26H162.07V21.576C162.07 20.148 160.964 19.014 159.494 19.014C158.752 19.014 158.122 19.224 157.632 19.602V19.154H155.196V26Z" fill="#3FA4DC"/>
<path d="M67.128 13H67.88V8.136H69.76V7.448H65.24V8.136H67.128V13ZM71.2411 13.08C71.8411 13.08 72.3851 12.848 72.7531 12.424L72.2891 11.952C72.0411 12.256 71.6651 12.4 71.2411 12.4C70.5611 12.4 70.0811 12 69.9691 11.368H72.9451C72.9771 11.216 72.9851 11.096 72.9851 10.984C72.9851 9.904 72.2331 9.12 71.1931 9.12C70.0891 9.12 69.2331 9.984 69.2331 11.096C69.2331 12.232 70.0971 13.08 71.2411 13.08ZM71.1771 9.784C71.8011 9.784 72.2011 10.152 72.2811 10.768H69.9691C70.0811 10.168 70.5371 9.784 71.1771 9.784ZM75.5062 13.08C76.0902 13.08 76.6182 12.848 76.9702 12.44L76.4982 11.96C76.2582 12.24 75.9142 12.384 75.5062 12.384C74.7862 12.384 74.2662 11.848 74.2662 11.096C74.2662 10.344 74.7862 9.816 75.5062 9.816C75.9062 9.816 76.2502 9.96 76.4902 10.24L76.9702 9.76C76.6102 9.352 76.0902 9.12 75.5062 9.12C74.3862 9.12 73.5222 9.984 73.5222 11.096C73.5222 12.216 74.3862 13.08 75.5062 13.08ZM77.6842 13H78.4043V10.784C78.4043 10.208 78.8203 9.792 79.3963 9.792C79.9723 9.792 80.3723 10.2 80.3723 10.784V13H81.0923V10.64C81.0923 9.752 80.4683 9.12 79.6043 9.12C79.1003 9.12 78.6763 9.336 78.4043 9.696V7.288H77.6842V13ZM82.0671 13H82.7871V10.784C82.7871 10.208 83.2031 9.792 83.7791 9.792C84.3551 9.792 84.7551 10.2 84.7551 10.784V13H85.4751V10.64C85.4751 9.848 84.8591 9.12 83.9871 9.12C83.4831 9.12 83.0591 9.336 82.7871 9.696V9.2H82.0671V13ZM88.1859 13.08C89.2979 13.08 90.1699 12.208 90.1699 11.088C90.1699 9.984 89.2899 9.12 88.1859 9.12C87.0659 9.12 86.2019 9.984 86.2019 11.088C86.2019 12.2 87.0739 13.08 88.1859 13.08ZM88.1859 12.384C87.4659 12.384 86.9459 11.84 86.9459 11.088C86.9459 10.352 87.4659 9.816 88.1859 9.816C88.8979 9.816 89.4259 10.344 89.4259 11.088C89.4259 11.84 88.9059 12.384 88.1859 12.384Z" fill="white"/>
<path d="M91.1091 13H91.8611V8.88L94.9491 13H95.4771V7.448H94.7251V11.568L91.6371 7.448H91.1091V13ZM98.2768 13.08C98.8208 13.08 99.2688 12.856 99.5408 12.488V13H100.261V9.2H99.5408V9.72C99.2688 9.344 98.8128 9.12 98.2768 9.12C97.2288 9.12 96.4208 9.992 96.4208 11.104C96.4208 12.216 97.2288 13.08 98.2768 13.08ZM98.3968 12.4C97.6768 12.4 97.1648 11.856 97.1648 11.096C97.1648 10.336 97.6688 9.8 98.3888 9.8C99.1088 9.8 99.5888 10.328 99.5888 11.104C99.5888 11.872 99.1088 12.4 98.3968 12.4ZM101.885 13H102.605V9.856H103.541V9.2H102.605V7.608H101.885V9.2H100.949V9.856H101.885V13ZM105.783 13.08C106.743 13.08 107.407 12.4 107.407 11.408V9.2H106.687V11.376C106.687 12.008 106.351 12.384 105.783 12.384C105.215 12.384 104.871 12 104.871 11.376V9.2H104.151V11.408C104.151 12.392 104.823 13.08 105.783 13.08ZM108.372 13H109.092V10.832C109.092 10.144 109.468 9.8 110.004 9.8C110.252 9.8 110.436 9.872 110.604 10.04L111.076 9.552C110.812 9.248 110.508 9.12 110.124 9.12C109.66 9.12 109.308 9.312 109.092 9.648V9.2H108.372V13ZM113.074 13.08C113.618 13.08 114.066 12.856 114.338 12.488V13H115.058V9.2H114.338V9.72C114.066 9.344 113.61 9.12 113.074 9.12C112.026 9.12 111.218 9.992 111.218 11.104C111.218 12.216 112.026 13.08 113.074 13.08ZM113.194 12.4C112.474 12.4 111.962 11.856 111.962 11.096C111.962 10.336 112.466 9.8 113.186 9.8C113.906 9.8 114.386 10.328 114.386 11.104C114.386 11.872 113.906 12.4 113.194 12.4Z" fill="#FEFFFF"/>
<path d="M117.906 13H121.394V12.312H118.658V7.448H117.906V13ZM122.56 8.44C122.824 8.44 123.016 8.24 123.016 7.976C123.016 7.72 122.824 7.52 122.56 7.52C122.296 7.52 122.104 7.72 122.104 7.976C122.104 8.24 122.296 8.44 122.56 8.44ZM122.2 13H122.92V9.2H122.2V13ZM125.285 13H125.709L127.453 9.2H126.685L125.509 11.88L124.341 9.2H123.541L125.285 13ZM129.686 13.08C130.286 13.08 130.83 12.848 131.198 12.424L130.734 11.952C130.486 12.256 130.11 12.4 129.686 12.4C129.006 12.4 128.526 12 128.414 11.368H131.39C131.422 11.216 131.43 11.096 131.43 10.984C131.43 9.904 130.678 9.12 129.638 9.12C128.534 9.12 127.678 9.984 127.678 11.096C127.678 12.232 128.542 13.08 129.686 13.08ZM129.622 9.784C130.246 9.784 130.646 10.152 130.726 10.768H128.414C128.526 10.168 128.982 9.784 129.622 9.784ZM134.008 13H137.704V12.312H134.76V10.488H137.44V9.832H134.76V8.136H137.664V7.448H134.008V13ZM139.902 13H140.326L142.07 9.2H141.302L140.126 11.88L138.958 9.2H138.158L139.902 13ZM144.304 13.08C144.904 13.08 145.448 12.848 145.816 12.424L145.352 11.952C145.104 12.256 144.728 12.4 144.304 12.4C143.624 12.4 143.144 12 143.032 11.368H146.008C146.04 11.216 146.048 11.096 146.048 10.984C146.048 9.904 145.296 9.12 144.256 9.12C143.152 9.12 142.296 9.984 142.296 11.096C142.296 12.232 143.16 13.08 144.304 13.08ZM144.24 9.784C144.864 9.784 145.264 10.152 145.344 10.768H143.032C143.144 10.168 143.6 9.784 144.24 9.784ZM146.833 13H147.553V10.784C147.553 10.208 147.969 9.792 148.545 9.792C149.121 9.792 149.521 10.2 149.521 10.784V13H150.241V10.64C150.241 9.848 149.625 9.12 148.753 9.12C148.249 9.12 147.825 9.336 147.553 9.696V9.2H146.833V13ZM151.753 13H152.473V9.856H153.409V9.2H152.473V7.608H151.753V9.2H150.817V9.856H151.753V13Z" fill="#F2F9FF"/>
</svg>
